<?xml version="1.0" encoding="UTF-8" standalone="no"?>
<!DOCTYPE svg PUBLIC "-//W3C//DTD SVG 1.1//EN" "http://www.w3.org/Graphics/SVG/1.1/DTD/svg11.dtd">
<svg width="100%" height="100%" viewBox="0 0 16 16" version="1.1" xmlns="http://www.w3.org/2000/svg" xmlns:xlink="http://www.w3.org/1999/xlink" xml:space="preserve" xmlns:serif="http://www.serif.com/" style="fill-rule:evenodd;clip-rule:evenodd;stroke-linejoin:round;stroke-miterlimit:2;">
    <g id="Artboard1" transform="matrix(0.0625,0,0,0.0625,0,0)">
        <rect x="0" y="0" width="256" height="256" style="fill:none;"/>
        <g transform="matrix(0.0669877,0,0,0.0669877,-9.19076,-9.19076)">
            <g transform="matrix(16,0,0,16,-335.571,77.4504)">
                <path d="M127.73,56.41C117.063,67.403 106.177,78.19 95.07,88.77C93.03,90.558 90.465,91.639 87.76,91.85C80.3,92.38 72.76,91.97 65.32,92.53C52.17,93.53 46.19,98.84 44.95,111.91C44.581,115.899 44.427,119.905 44.49,123.91C44.427,127.915 44.581,131.921 44.95,135.91C46.19,148.98 52.17,154.3 65.32,155.29C72.78,155.85 80.32,155.43 87.76,155.97C90.459,156.167 93.023,157.23 95.07,159C106.13,169.613 117.017,180.397 127.73,191.35C139.73,203.74 154.73,202.92 170.01,201.58L170.01,44.48C154.7,43.14 139.77,44 127.73,56.41Z" style="fill:rgb(68,68,100);fill-rule:nonzero;"/>
            </g>
            <g transform="matrix(16,0,0,16,-335.571,77.4504)">
                <path d="M205.8,60.57L213.47,45.8C213.47,45.8 253.47,68.58 253.47,124.24C253.47,179.9 213,200.56 213,200.56L205.83,186.56C205.83,186.56 237.66,166.7 237.66,124.63C237.66,82.56 205.8,60.57 205.8,60.57Z" style="fill:rgb(238,102,0);fill-rule:nonzero;"/>
            </g>
            <g transform="matrix(16,0,0,16,-335.571,77.4504)">
                <path d="M192,89.48L199.62,74.48C199.62,74.48 223,91.9 223,124.63C223,157.36 199.5,172.48 199.5,172.48L192,157.36C201.551,149.17 207.075,137.212 207.12,124.63C207.13,103.48 192,89.48 192,89.48Z" style="fill:rgb(238,102,0);fill-rule:nonzero;"/>
            </g>
        </g>
    </g>
</svg>
